<mxfile host="app.diagrams.net" modified="2023-02-22T05:22:23.479Z" agent="5.0 (Macintosh; Intel Mac OS X 10_15_7) AppleWebKit/537.36 (KHTML, like Gecko) Chrome/110.0.0.0 Safari/537.36" etag="pJTHkkD3KvXnvDLj7x0t" version="20.8.21" type="github">
  <diagram name="Page-1" id="cKTDRNI7U-4XpWMu2y_F">
    <mxGraphModel dx="954" dy="648" grid="1" gridSize="10" guides="1" tooltips="1" connect="1" arrows="1" fold="1" page="1" pageScale="1" pageWidth="850" pageHeight="1100" math="0" shadow="0">
      <root>
        <mxCell id="0" />
        <mxCell id="1" parent="0" />
        <mxCell id="wuMtemBimHMf4GddGNSt-1" value="End" style="ellipse;whiteSpace=wrap;html=1;aspect=fixed;fillColor=#f8cecc;strokeColor=#b85450;fontStyle=1;strokeWidth=2;" vertex="1" parent="1">
          <mxGeometry x="115" y="650" width="70" height="70" as="geometry" />
        </mxCell>
        <mxCell id="wuMtemBimHMf4GddGNSt-2" value="" style="edgeStyle=orthogonalEdgeStyle;rounded=0;orthogonalLoop=1;jettySize=auto;html=1;" edge="1" parent="1" target="wuMtemBimHMf4GddGNSt-12">
          <mxGeometry relative="1" as="geometry">
            <mxPoint x="150.0000000000001" y="159.9999999999999" as="sourcePoint" />
          </mxGeometry>
        </mxCell>
        <mxCell id="wuMtemBimHMf4GddGNSt-3" value="" style="edgeStyle=orthogonalEdgeStyle;rounded=0;orthogonalLoop=1;jettySize=auto;html=1;" edge="1" parent="1" source="wuMtemBimHMf4GddGNSt-5" target="wuMtemBimHMf4GddGNSt-10">
          <mxGeometry relative="1" as="geometry" />
        </mxCell>
        <mxCell id="wuMtemBimHMf4GddGNSt-4" value="" style="edgeStyle=orthogonalEdgeStyle;rounded=0;orthogonalLoop=1;jettySize=auto;html=1;" edge="1" parent="1" source="wuMtemBimHMf4GddGNSt-5" target="wuMtemBimHMf4GddGNSt-16">
          <mxGeometry relative="1" as="geometry" />
        </mxCell>
        <mxCell id="wuMtemBimHMf4GddGNSt-5" value="staff menyetujui?" style="rhombus;whiteSpace=wrap;html=1;fillColor=#dae8fc;strokeColor=#6c8ebf;" vertex="1" parent="1">
          <mxGeometry x="105" y="290" width="90" height="90" as="geometry" />
        </mxCell>
        <mxCell id="wuMtemBimHMf4GddGNSt-8" value="ya" style="text;html=1;strokeColor=none;fillColor=none;align=center;verticalAlign=middle;whiteSpace=wrap;rounded=0;" vertex="1" parent="1">
          <mxGeometry x="105" y="390" width="60" height="30" as="geometry" />
        </mxCell>
        <mxCell id="wuMtemBimHMf4GddGNSt-22" value="" style="edgeStyle=orthogonalEdgeStyle;rounded=0;orthogonalLoop=1;jettySize=auto;html=1;" edge="1" parent="1" source="wuMtemBimHMf4GddGNSt-10" target="wuMtemBimHMf4GddGNSt-21">
          <mxGeometry relative="1" as="geometry" />
        </mxCell>
        <mxCell id="wuMtemBimHMf4GddGNSt-10" value="tekan tombol &quot;decline&quot;" style="shape=parallelogram;perimeter=parallelogramPerimeter;whiteSpace=wrap;html=1;fixedSize=1;strokeWidth=1;fillColor=#fff2cc;strokeColor=#d6b656;" vertex="1" parent="1">
          <mxGeometry x="280" y="310" width="185" height="50" as="geometry" />
        </mxCell>
        <mxCell id="wuMtemBimHMf4GddGNSt-11" value="" style="edgeStyle=orthogonalEdgeStyle;rounded=0;orthogonalLoop=1;jettySize=auto;html=1;" edge="1" parent="1" source="wuMtemBimHMf4GddGNSt-12" target="wuMtemBimHMf4GddGNSt-5">
          <mxGeometry relative="1" as="geometry" />
        </mxCell>
        <mxCell id="wuMtemBimHMf4GddGNSt-12" value="Staff membuka jadwal&lt;br&gt;yang diajukan oleh&lt;br&gt;client" style="rounded=1;whiteSpace=wrap;html=1;fontSize=12;glass=0;strokeWidth=1;shadow=0;" vertex="1" parent="1">
          <mxGeometry x="77.5" y="190" width="145" height="70" as="geometry" />
        </mxCell>
        <mxCell id="wuMtemBimHMf4GddGNSt-27" value="" style="edgeStyle=orthogonalEdgeStyle;rounded=0;orthogonalLoop=1;jettySize=auto;html=1;" edge="1" parent="1" source="wuMtemBimHMf4GddGNSt-16" target="wuMtemBimHMf4GddGNSt-23">
          <mxGeometry relative="1" as="geometry" />
        </mxCell>
        <mxCell id="wuMtemBimHMf4GddGNSt-16" value="tekan tombol &quot;accept&quot;" style="shape=parallelogram;perimeter=parallelogramPerimeter;whiteSpace=wrap;html=1;fixedSize=1;strokeWidth=1;fillColor=#fff2cc;strokeColor=#d6b656;" vertex="1" parent="1">
          <mxGeometry x="57.5" y="430" width="185" height="50" as="geometry" />
        </mxCell>
        <mxCell id="wuMtemBimHMf4GddGNSt-17" value="tidak" style="text;html=1;strokeColor=none;fillColor=none;align=center;verticalAlign=middle;whiteSpace=wrap;rounded=0;" vertex="1" parent="1">
          <mxGeometry x="210" y="310" width="60" height="30" as="geometry" />
        </mxCell>
        <mxCell id="wuMtemBimHMf4GddGNSt-19" value="staff melihat jadwal" style="ellipse;whiteSpace=wrap;html=1;fillColor=#d5e8d4;strokeColor=#82b366;strokeWidth=2;" vertex="1" parent="1">
          <mxGeometry x="90" y="80" width="120" height="80" as="geometry" />
        </mxCell>
        <mxCell id="wuMtemBimHMf4GddGNSt-24" value="" style="edgeStyle=orthogonalEdgeStyle;rounded=0;orthogonalLoop=1;jettySize=auto;html=1;" edge="1" parent="1" source="wuMtemBimHMf4GddGNSt-21" target="wuMtemBimHMf4GddGNSt-23">
          <mxGeometry relative="1" as="geometry">
            <Array as="points">
              <mxPoint x="373" y="565" />
            </Array>
          </mxGeometry>
        </mxCell>
        <mxCell id="wuMtemBimHMf4GddGNSt-21" value="modal untuk input alasan" style="shape=parallelogram;perimeter=parallelogramPerimeter;whiteSpace=wrap;html=1;fixedSize=1;strokeWidth=1;fillColor=#fff2cc;strokeColor=#d6b656;" vertex="1" parent="1">
          <mxGeometry x="280" y="430" width="185" height="50" as="geometry" />
        </mxCell>
        <mxCell id="wuMtemBimHMf4GddGNSt-28" value="" style="edgeStyle=orthogonalEdgeStyle;rounded=0;orthogonalLoop=1;jettySize=auto;html=1;" edge="1" parent="1" source="wuMtemBimHMf4GddGNSt-23" target="wuMtemBimHMf4GddGNSt-1">
          <mxGeometry relative="1" as="geometry" />
        </mxCell>
        <mxCell id="wuMtemBimHMf4GddGNSt-23" value="pemberitahuan aksi dan&lt;br&gt;respon servernya" style="shape=parallelogram;perimeter=parallelogramPerimeter;whiteSpace=wrap;html=1;fixedSize=1;strokeWidth=1;fillColor=#fff2cc;strokeColor=#d6b656;" vertex="1" parent="1">
          <mxGeometry x="57.5" y="540" width="185" height="50" as="geometry" />
        </mxCell>
      </root>
    </mxGraphModel>
  </diagram>
</mxfile>
